<?xml version="1.0" encoding="UTF-8"?>
<svg id="Layer_2" data-name="Layer 2" xmlns="http://www.w3.org/2000/svg" viewBox="0 0 342.85 342.85">
  <defs>
    <style>
      .cls-1 {
        fill: #fff;
      }

      .cls-2 {
        fill: #ed2647;
      }

      .cls-3 {
        fill: #ff908b;
      }
    </style>
  </defs>
  <g id="icon-0">
    <path class="cls-3" d="M0,171.43C0,76.75,76.75,0,171.43,0s171.43,76.75,171.43,171.43-76.75,171.43-171.43,171.43S0,266.1,0,171.43Zm171.43,167.55c92.54,0,167.55-75.02,167.55-167.55S263.96,3.87,171.43,3.87,3.87,78.89,3.87,171.43s75.02,167.55,167.55,167.55h0Z"/>
    <circle class="cls-3" cx="171.43" cy="171.43" r="164.57"/>
    <g id="textblocktransform">
      <path id="text-0" class="cls-1" d="M75.29,254.52h-10.43v-39.43h10.43v14.68h8.49v-14.68h10.43v39.43h-10.43v-15.65h-8.49v15.65Zm42.46,.73h0c-2.39,0-4.62-.36-6.71-1.07-2.08-.7-3.88-1.73-5.4-3.09-1.51-1.35-2.71-3.02-3.58-5-.87-1.98-1.3-4.23-1.3-6.73h0c0-2.47,.44-4.69,1.33-6.67s2.07-3.65,3.54-5.01c1.48-1.35,3.18-2.39,5.1-3.12,1.92-.73,3.9-1.09,5.92-1.09h0c2.39,0,4.48,.38,6.27,1.15,1.8,.77,3.31,1.82,4.53,3.15s2.12,2.89,2.73,4.67c.61,1.78,.91,3.68,.91,5.7h0c0,.93-.05,1.8-.16,2.61-.1,.81-.19,1.4-.27,1.76h-19.47c.44,1.7,1.33,2.93,2.67,3.7,1.33,.77,3.11,1.15,5.34,1.15h0c1.21,0,2.39-.15,3.54-.46,1.16-.3,2.4-.75,3.74-1.36h0l3.4,6.19c-1.82,1.17-3.82,2.05-6.01,2.63-2.18,.59-4.23,.89-6.13,.89Zm-.73-23.9h0c-2.99,0-4.91,1.46-5.76,4.37h10.62c-.44-2.91-2.06-4.37-4.85-4.37Zm30.21,23.9h0c-1.59,0-2.98-.25-4.2-.76-1.21-.5-2.24-1.18-3.08-2.03-.85-.85-1.49-1.84-1.92-2.97-.42-1.13-.63-2.33-.63-3.58h0c0-1.7,.35-3.19,1.06-4.49,.71-1.29,1.82-2.4,3.34-3.31,1.52-.91,3.49-1.62,5.92-2.15,2.43-.53,5.38-.89,8.86-1.09h0c-.2-1.09-.8-1.89-1.8-2.4-.99-.5-2.33-.75-4.03-.75h0c-1.3,0-2.63,.21-3.98,.63-1.35,.43-2.94,1.07-4.76,1.92h0l-3.64-6.79c2.3-1.29,4.64-2.28,7.04-2.97,2.39-.69,4.85-1.03,7.4-1.03h0c2.14,0,4.09,.27,5.85,.81,1.76,.55,3.26,1.4,4.49,2.55,1.24,1.16,2.19,2.63,2.85,4.43,.66,1.8,.99,3.94,.99,6.41h0v16.86h-8.49l-.72-3.15h-.24c-1.5,1.09-3.11,2.01-4.85,2.75-1.74,.75-3.56,1.13-5.46,1.13Zm3.38-8.01h0c1.21,0,2.31-.23,3.29-.7,.97-.46,1.86-.99,2.67-1.6h0v-3.88c-1.86,.08-3.39,.23-4.59,.45-1.19,.23-2.13,.52-2.81,.89s-1.16,.77-1.43,1.21c-.26,.44-.39,.93-.39,1.46h0c0,1.46,1.09,2.18,3.26,2.18Zm43.61,8.01h0c-2.02,0-3.79-.32-5.3-.97-1.52-.65-2.79-1.55-3.82-2.71-1.04-1.15-1.8-2.53-2.31-4.15-.51-1.62-.76-3.42-.76-5.4h0v-21.59h-9.1v-8.13h19.53v30.09c0,.89,.14,1.62,.42,2.18,.28,.57,.64,1.02,1.07,1.36,.42,.35,.91,.59,1.46,.73,.54,.15,1.08,.22,1.6,.22h0c1.25,0,2.71-.28,4.37-.85h0l2.24,7.64c-.81,.24-1.57,.47-2.27,.67-.71,.2-1.43,.36-2.16,.49-.73,.12-1.5,.22-2.31,.3-.81,.08-1.7,.12-2.67,.12Zm25.66,0h0c-3.4,0-5.84-1.12-7.34-3.37-1.5-2.24-2.24-5.24-2.24-9h0v-18.68h10.43v17.35c0,1.7,.23,2.93,.7,3.7,.46,.77,1.38,1.15,2.75,1.15h0c.89,0,1.67-.17,2.34-.52,.66-.34,1.4-1.06,2.21-2.15h0v-19.53h10.43v30.33h-8.49l-.73-4h-.24c-1.29,1.46-2.72,2.61-4.27,3.46-1.56,.85-3.41,1.27-5.56,1.27Zm35.91-.73h-10.86l10.13-15.77-9.52-14.56h11.16l2.49,4.25c.44,.85,.94,1.72,1.48,2.61,.55,.89,1.05,1.76,1.49,2.61h.24c.32-.85,.69-1.72,1.09-2.61,.4-.89,.77-1.76,1.09-2.61h0l2-4.25h10.86l-9.58,15.77,10.13,14.56h-11.16l-2.79-4.25c-.53-.85-1.07-1.72-1.64-2.61-.57-.89-1.11-1.76-1.64-2.61h-.24c-.4,.85-.82,1.71-1.25,2.57-.42,.87-.83,1.76-1.24,2.64h0l-2.24,4.25Z"/>
    </g>
    <g>
      <path class="cls-2" d="M172.98,88.32c-.75-.95-2.35-.95-3.1,0-1.62,2.05-39.68,50.5-39.68,72.61s18.5,41.23,41.23,41.23,41.23-18.49,41.23-41.23-38.06-70.56-39.68-72.61Zm-1.55,109.88c-20.55,0-37.28-16.72-37.28-37.27,0-18.34,30.04-58.7,37.28-68.15,7.24,9.45,37.28,49.81,37.28,68.15,0,20.55-16.72,37.27-37.28,37.27Z"/>
      <path class="cls-2" d="M191.09,147.64h-9.88v-9.88c0-1.09-.89-1.98-1.98-1.98h-15.6c-1.09,0-1.98,.89-1.98,1.98v9.88h-9.88c-1.09,0-1.98,.89-1.98,1.98v15.6c0,1.09,.89,1.98,1.98,1.98h9.88v9.88c0,1.09,.89,1.98,1.98,1.98h15.6c1.09,0,1.98-.89,1.98-1.98v-9.88h9.88c1.09,0,1.98-.89,1.98-1.98v-15.6c0-1.09-.88-1.98-1.98-1.98Zm-1.98,15.6h-9.88c-1.09,0-1.98,.89-1.98,1.98v9.88h-11.64v-9.88c0-1.09-.89-1.98-1.98-1.98h-9.88v-11.64h9.88c1.09,0,1.98-.89,1.98-1.98v-9.88h11.64v9.88c0,1.09,.89,1.98,1.98,1.98h9.88v11.64Z"/>
    </g>
  </g>
</svg>